<?xml version="1.0" encoding="utf-8"?>
<!-- Generator: Adobe Illustrator 16.0.4, SVG Export Plug-In . SVG Version: 6.00 Build 0)  -->
<!DOCTYPE svg PUBLIC "-//W3C//DTD SVG 1.1//EN" "http://www.w3.org/Graphics/SVG/1.1/DTD/svg11.dtd">
<svg version="1.1" id="svg2" xmlns:svg="http://www.w3.org/2000/svg"
	 xmlns="http://www.w3.org/2000/svg" xmlns:xlink="http://www.w3.org/1999/xlink" x="0px" y="0px" width="1194.528px"
	 height="1200.362px" viewBox="95.327 102.872 1194.528 1200.362" enable-background="new 95.327 102.872 1194.528 1200.362"
	 xml:space="preserve">
<g id="layer1">
	<path id="path1881" d="M97.877,1300.686c-3.4-3.4-3.4-1191.863,0-1195.264c3.4-3.399,1186.028-3.4,1189.429,0
		c3.399,3.4,3.399,1191.863,0,1195.264C1283.905,1304.084,101.277,1304.084,97.877,1300.686z M392.634,1225.633
		c0.336-43.764-0.188-67.998-1.525-70.498c-1.967-3.673-4.511-3.81-70.621-3.81c-50.75,0-69.189,0.605-70.917,2.333
		c-1.725,1.726-2.333,19.895-2.333,69.688c0,37.045,0.594,67.948,1.32,68.676c0.726,0.726,33.326,1.09,72.443,0.81l71.123-0.51
		L392.634,1225.633z M689.674,1222.311v-70.014h-72.93h-72.929l-0.512,70.522l-0.511,70.521l73.44-0.51l73.438-0.51v-70.01H689.674z
		 M989.683,1225.633c0.335-43.764-0.188-67.998-1.526-70.498c-1.967-3.676-4.522-3.81-72.566-3.81
		c-52.261,0-71.131,0.604-72.859,2.333c-1.727,1.726-2.334,19.895-2.334,69.688c0,37.045,0.594,67.948,1.318,68.674
		c0.726,0.727,34.2,1.092,74.389,0.812l73.067-0.51L989.683,1225.633z M1281.399,1224.484c0.368-48.807-0.114-68.592-1.718-70.523
		c-1.834-2.209-14.345-2.595-70.523-2.175l-68.295,0.511l-0.512,70.523l-0.51,70.521l70.522-0.511l70.521-0.511L1281.399,1224.484z
		 M242.215,1148.2c2.729-1.048,3.077-9.384,3.077-73.902v-72.721h-69.804c-61.858,0-69.938,0.35-70.984,3.076
		c-0.649,1.69-1.181,33.896-1.181,71.566c0,50.679,0.607,69.1,2.333,70.826c1.723,1.724,19.499,2.333,67.909,2.333
		C209.63,1149.38,240.523,1148.849,242.215,1148.2z M539.582,1146.949c3.037-2.228,3.271-8.408,2.803-73.416l-0.515-70.984
		l-71.827-0.51c-56.17-0.399-72.166,0.023-73.386,1.943c-0.856,1.352-1.571,33.242-1.588,70.87
		c-0.026,59.628,0.361,68.808,3.025,71.472c2.661,2.66,11.79,3.056,70.612,3.056C519.688,1149.38,537.079,1148.783,539.582,1146.949
		z M835.373,1148.2c2.729-1.048,3.077-9.386,3.077-73.927v-72.744l-72.443,0.51l-72.442,0.51l-0.512,71.827
		c-0.398,56.17,0.025,72.167,1.945,73.386C697.832,1149.561,830.746,1149.976,835.373,1148.2z M1134.686,1146.949
		c3.037-2.228,3.272-8.408,2.803-73.416l-0.515-70.984l-72.8-0.51c-56.948-0.399-73.139,0.023-74.356,1.943
		c-0.857,1.352-1.572,33.242-1.59,70.87c-0.024,59.628,0.363,68.808,3.026,71.472c2.663,2.662,11.879,3.056,71.585,3.056
		C1114.598,1149.38,1132.18,1148.785,1134.686,1146.949z M391.914,996.556c0.648-1.691,1.181-33.571,1.181-70.846
		c0-59.016-0.395-68.164-3.056-70.825c-2.659-2.658-11.66-3.057-69.168-3.057c-41.854,0-67.492,0.739-69.873,2.014
		c-3.613,1.935-3.762,4.805-3.762,72.605c0,38.824,0.583,71.175,1.296,71.888c0.713,0.714,33,1.297,71.749,1.297
		C382.73,999.632,390.868,999.282,391.914,996.556z M690.185,926.832c0.399-56.17-0.023-72.166-1.943-73.385
		c-2.834-1.799-137.693-2.214-142.321-0.438c-2.729,1.048-3.076,9.386-3.076,73.925v72.745l73.416-0.51l73.415-0.51L690.185,926.832
		z M988.962,996.556c0.649-1.691,1.181-33.571,1.181-70.846c0-59.016-0.395-68.164-3.056-70.825
		c-2.662-2.662-11.836-3.057-71.112-3.057c-43.193,0-69.431,0.736-71.817,2.014c-3.613,1.935-3.763,4.805-3.763,72.605
		c0,38.824,0.584,71.175,1.298,71.888c0.713,0.714,33.875,1.297,73.692,1.297C979.607,999.632,987.915,999.284,988.962,996.556z
		 M1280.68,996.556c0.649-1.691,1.182-33.896,1.182-71.566c0-50.68-0.607-69.101-2.334-70.826
		c-1.724-1.723-19.499-2.334-67.908-2.334c-36.066,0-66.959,0.531-68.651,1.181c-2.729,1.048-3.075,9.385-3.075,73.901v72.722
		h69.805C1271.553,999.632,1279.634,999.282,1280.68,996.556z M244.319,775.982v-72.931l-67.837-0.512
		c-48.447-0.365-68.598,0.119-70.498,1.696c-3.667,3.044-3.956,139.685-0.303,143.337c1.778,1.777,19.125,2.231,70.499,1.848
		l68.14-0.511L244.319,775.982L244.319,775.982z M540.685,847.224c1.579-1.901,2.062-22.811,1.696-73.415l-0.511-70.756
		l-70.984-0.514c-65.007-0.471-71.188-0.234-73.415,2.803c-3.138,4.279-3.524,134.976-0.418,140.78
		c1.934,3.611,4.793,3.762,71.719,3.762C525.361,849.884,538.893,849.383,540.685,847.224z M837.479,775.982v-72.931h-71.957
		h-71.957l-0.512,70.978c-0.281,39.036-0.086,72.084,0.436,73.438c0.744,1.938,16.165,2.354,72.468,1.953l71.522-0.511V775.982z
		 M1135.612,847.55c3.346-3.346,3.346-139.79,0-143.136c-1.73-1.73-20.78-2.334-73.675-2.334h-71.342l-1.173,4.376
		c-2.098,7.827-1.377,135.621,0.787,139.666c1.935,3.613,4.803,3.762,72.541,3.762
		C1115.013,849.884,1133.883,849.279,1135.612,847.55z M390.039,699.024c2.663-2.664,3.052-11.844,3.025-71.472
		c-0.017-37.628-0.73-69.52-1.589-70.87c-1.219-1.92-17.021-2.345-72.413-1.944l-70.854,0.511l-0.514,70.984
		c-0.471,65.008-0.235,71.188,2.803,73.416c2.5,1.833,19.698,2.431,69.901,2.431C378.336,702.08,387.379,701.684,390.039,699.024z
		 M688.24,700.462c1.92-1.219,2.344-17.216,1.943-73.386l-0.511-71.827h-72.93h-72.929l-0.512,71.827
		c-0.398,56.17,0.024,72.167,1.945,73.386C548.456,702.498,685.033,702.498,688.24,700.462z M987.087,699.024
		c2.663-2.664,3.052-11.844,3.026-71.472c-0.018-37.628-0.731-69.52-1.589-70.87c-1.22-1.92-17.409-2.344-74.357-1.943l-72.8,0.51
		l-0.514,70.984c-0.472,65.008-0.234,71.188,2.803,73.416c2.504,1.836,20.087,2.431,71.846,2.431
		C975.208,702.08,984.424,701.688,987.087,699.024z M1279.526,699.746c2.706-2.706,3.387-138.854,0.715-143.063
		c-1.218-1.919-16.634-2.345-70.47-1.944l-68.908,0.512l-0.512,71.827c-0.398,56.17,0.024,72.167,1.945,73.386
		C1146.503,703.132,1276.821,702.452,1279.526,699.746z M244.829,478.917l-0.51-71.471l-68.909-0.513
		c-53.835-0.398-69.25,0.025-70.469,1.944c-1.799,2.835-2.214,133.805-0.438,138.433c1.046,2.727,9.128,3.076,71.008,3.076h69.828
		L244.829,478.917z M541.87,478.431v-70.983l-71.827-0.512c-56.17-0.398-72.166,0.024-73.386,1.944
		c-1.806,2.843-2.21,133.813-0.43,138.455c1.064,2.771,8.82,3.046,73.416,2.59l72.227-0.51V478.431z M837.987,478.917l-0.511-71.471
		H765.52h-71.957l-0.512,69.028c-0.281,37.967-0.09,70.128,0.425,71.472c0.729,1.896,16.979,2.44,72.979,2.44h72.042
		L837.987,478.917z M1136.974,478.431v-70.983l-72.8-0.512c-56.948-0.398-73.139,0.024-74.356,1.945
		c-1.806,2.842-2.21,133.812-0.43,138.453c1.063,2.773,8.904,3.046,74.388,2.59l73.198-0.509V478.431L1136.974,478.431z
		 M390.761,400.25c1.727-1.726,2.334-19.936,2.334-69.873c0-58.807-0.396-67.935-3.056-70.596
		c-2.659-2.658-11.66-3.056-69.168-3.056c-41.854,0-67.492,0.739-69.873,2.013c-3.612,1.933-3.762,4.792-3.762,71.633
		c0,38.291,0.583,70.203,1.296,70.916c0.713,0.713,32.481,1.297,70.595,1.297C370.435,402.584,389.033,401.978,390.761,400.25z
		 M690.185,330.757c0.399-55.392-0.023-71.195-1.943-72.413c-2.834-1.799-137.693-2.214-142.321-0.438
		c-2.727,1.046-3.076,9.184-3.076,71.633c0,38.749,0.595,71.046,1.32,71.771c0.726,0.728,33.763,1.092,73.415,0.812l72.096-0.51
		L690.185,330.757z M988.962,399.508c0.649-1.691,1.181-33.135,1.181-69.874c0-58.131-0.396-67.193-3.056-69.853
		c-2.662-2.662-11.836-3.056-71.112-3.056c-43.193,0-69.431,0.736-71.817,2.013c-3.611,1.933-3.763,4.792-3.763,71.633
		c0,38.291,0.584,70.203,1.298,70.916c0.713,0.713,33.875,1.297,73.692,1.297C979.607,402.584,987.915,402.236,988.962,399.508z
		 M1280.68,399.508c0.649-1.691,1.182-33.46,1.182-70.596c0-49.922-0.608-68.127-2.334-69.853
		c-1.724-1.723-19.499-2.334-67.908-2.334c-36.066,0-66.959,0.531-68.651,1.181c-2.727,1.046-3.075,9.184-3.075,71.633
		c0,38.749,0.584,71.036,1.297,71.749s32.125,1.297,69.804,1.297C1271.668,402.584,1279.634,402.232,1280.68,399.508z
		 M244.83,183.286l0.51-70.523l-70.522,0.511l-70.523,0.51l-0.512,67.837c-0.368,48.806,0.114,68.591,1.717,70.523
		c1.833,2.209,14.345,2.595,70.524,2.175l68.295-0.511L244.83,183.286z M540.686,252.12c1.577-1.9,2.063-22.051,1.696-70.499
		l-0.512-67.837h-72.929h-72.931l-0.512,66.689c-0.336,43.764,0.188,67.998,1.527,70.498c1.966,3.674,4.517,3.81,71.743,3.81
		C525.377,254.78,538.893,254.28,540.686,252.12z M837.988,183.286l0.51-70.522l-72.467,0.51l-72.469,0.51l-0.512,68.057
		c-0.282,37.431-0.086,69.166,0.436,70.522c0.744,1.943,16.127,2.358,72.469,1.956l71.521-0.51L837.988,183.286z M1135.789,252.12
		c1.577-1.9,2.062-22.051,1.696-70.499l-0.513-67.837h-73.9H989.17l-0.512,66.689c-0.336,43.764,0.188,67.998,1.526,70.498
		c1.968,3.676,4.523,3.81,72.718,3.81C1120.33,254.78,1133.994,254.282,1135.789,252.12z"/>
</g>
<path id="path3194" stroke="#FFFFFF" stroke-width="5" stroke-linecap="round" d="M164.342,283.419
	c-6.772,0-12.269,5.497-12.269,12.271c0,2.715,0.901,5.252,2.396,7.285c-5.987,3.441-10.064,9.858-10.064,17.255
	c0,6.239,2.89,11.777,7.381,15.434c-9.199,3.245-22.717,17.015-22.717,41.316h70.546c0-24.301-13.518-38.071-22.717-41.316
	c4.491-3.657,7.38-9.195,7.38-15.434c0-7.397-4.077-13.813-10.064-17.255c1.495-2.033,2.396-4.57,2.396-7.285
	C176.611,288.917,171.115,283.419,164.342,283.419z"/>
<path id="path2575" fill="#FFFFFF" stroke="#000000" stroke-width="5" stroke-linecap="round" d="M1212.118,1027.52
	c-6.772,0-12.27,5.496-12.27,12.271c0,2.715,0.901,5.253,2.396,7.285c-5.987,3.442-10.064,9.858-10.064,17.256
	c0,6.239,2.891,11.776,7.382,15.434c-9.199,3.245-22.718,17.016-22.718,41.316h70.546c0-24.302-13.518-38.071-22.717-41.316
	c4.491-3.656,7.381-9.193,7.381-15.434c0-7.397-4.077-13.813-10.063-17.256c1.495-2.032,2.396-4.57,2.396-7.285
	C1224.388,1033.016,1218.891,1027.52,1212.118,1027.52z"/>
<g id="g3010" transform="matrix(3.067229,0,0,3.067558,-405.59286,-1903.0383)">
	<path id="path2996" fill="#FFFFFF" stroke="#000000" stroke-width="1.63" stroke-linejoin="round" d="M270.786,1032.414
		c3.385-0.972,10.115,0.431,13.5-2c3.385,2.431,10.115,1.028,13.5,2c0,0,1.646,0.542,3,2c-0.677,0.972-1.646,0.986-3,0.5
		c-3.385-0.972-10.115,0.458-13.5-1c-3.385,1.458-10.115,0.028-13.5,1c-1.354,0.486-2.323,0.472-3-0.5
		C269.14,1032.47,270.786,1032.414,270.786,1032.414z"/>
	<path id="path2998" fill="#FFFFFF" stroke="#000000" stroke-width="1.63" stroke-linejoin="round" d="M276.786,1028.414
		c2.5,2.5,12.5,2.5,15,0c0.5-1.5,0-2,0-2c0-2.5-2.5-4-2.5-4c5.5-1.5,6-11.5-5-15.5c-11,4-10.5,14-5,15.5c0,0-2.5,1.5-2.5,4
		C276.786,1026.414,276.286,1026.914,276.786,1028.414z"/>
	<path id="path3000" fill="#FFFFFF" stroke="#000000" stroke-width="1.63" stroke-linejoin="round" d="M286.786,1004.414
		c0,1.381-1.119,2.5-2.5,2.5c-1.381,0-2.5-1.119-2.5-2.5c0-1.381,1.119-2.5,2.5-2.5
		C285.666,1001.914,286.786,1003.034,286.786,1004.414z"/>
	<path id="path3002" fill="none" stroke="#000000" stroke-width="1.63" d="M279.286,1022.414h10"/>
	<path id="path3004" fill="none" stroke="#000000" stroke-width="1.63" d="M276.786,1026.414h15"/>
	<path id="path3006" fill="none" stroke="#000000" stroke-width="1.63" stroke-linecap="round" d="M284.286,1011.914v5"/>
	<path id="path3008" fill="none" stroke="#000000" stroke-width="1.63" stroke-linecap="round" d="M281.786,1014.414h5"/>
</g>
<g id="g3218" transform="matrix(3.067229,0,0,3.067558,-734.72771,-2206.113)">
	<path id="path3119" fill="#FFFFFF" stroke="#000000" stroke-width="1.63" stroke-linejoin="round" d="M280.786,1130.714h27v-3h-27
		V1130.714z"/>
	<path id="path3121" fill="#FFFFFF" stroke="#000000" stroke-width="1.63" stroke-linejoin="round" d="M283.786,1127.714v-4h21v4
		H283.786z"/>
	<path id="path3129" fill="#FFFFFF" stroke="#000000" stroke-width="1.63" stroke-linejoin="round" d="M282.786,1105.714v-5h4v2h5
		v-2h5v2h5v-2h4v5"/>
	<path id="path3127" fill="#FFFFFF" stroke="#000000" stroke-width="1.63" stroke-linecap="round" stroke-linejoin="round" d="
		M305.786,1105.714l-3,3h-17l-3-3"/>
	<path id="path3125" fill="#FFFFFF" stroke="#000000" stroke-width="1.63" d="M302.786,1108.714v12.5h-17v-12.5"/>
	<path id="path3123" fill="#FFFFFF" stroke="#000000" stroke-width="1.63" stroke-linecap="round" stroke-linejoin="round" d="
		M302.786,1121.214l1.5,2.5h-20l1.5-2.5"/>
	<path id="path5175" fill="none" stroke="#000000" stroke-width="1.63" stroke-linecap="round" d="M282.786,1105.714h23"/>
</g>
<g id="g3388" transform="matrix(3.067229,0,0,3.067558,42.100979,-1903.0383)">
	<path id="path3390" fill="#FFFFFF" stroke="#000000" stroke-width="1.63" stroke-linejoin="round" d="M270.786,1032.414
		c3.385-0.972,10.115,0.431,13.5-2c3.385,2.431,10.115,1.028,13.5,2c0,0,1.646,0.542,3,2c-0.677,0.972-1.646,0.986-3,0.5
		c-3.385-0.972-10.115,0.458-13.5-1c-3.385,1.458-10.115,0.028-13.5,1c-1.354,0.486-2.323,0.472-3-0.5
		C269.14,1032.47,270.786,1032.414,270.786,1032.414z"/>
	<path id="path3392" fill="#FFFFFF" stroke="#000000" stroke-width="1.63" stroke-linejoin="round" d="M276.786,1028.414
		c2.5,2.5,12.5,2.5,15,0c0.5-1.5,0-2,0-2c0-2.5-2.5-4-2.5-4c5.5-1.5,6-11.5-5-15.5c-11,4-10.5,14-5,15.5c0,0-2.5,1.5-2.5,4
		C276.786,1026.414,276.286,1026.914,276.786,1028.414z"/>
	<path id="path3394" fill="#FFFFFF" stroke="#000000" stroke-width="1.63" stroke-linejoin="round" d="M286.786,1004.414
		c0,1.381-1.119,2.5-2.5,2.5c-1.381,0-2.5-1.119-2.5-2.5c0-1.381,1.119-2.5,2.5-2.5
		C285.666,1001.914,286.786,1003.034,286.786,1004.414z"/>
	<path id="path3396" fill="none" stroke="#000000" stroke-width="1.63" d="M279.286,1022.414h10"/>
	<path id="path3398" fill="none" stroke="#000000" stroke-width="1.63" d="M276.786,1026.414h15"/>
	<path id="path3400" fill="none" stroke="#000000" stroke-width="1.63" stroke-linecap="round" d="M284.286,1011.914v5"/>
	<path id="path3402" fill="none" stroke="#000000" stroke-width="1.63" stroke-linecap="round" d="M281.786,1014.414h5"/>
</g>
<g id="g3416" transform="matrix(3.067229,0,0,3.067558,309.89129,-2206.113)">
	<path id="path3418" fill="#FFFFFF" stroke="#000000" stroke-width="1.63" stroke-linejoin="round" d="M280.786,1130.714h27v-3h-27
		V1130.714z"/>
	<path id="path3420" fill="#FFFFFF" stroke="#000000" stroke-width="1.63" stroke-linejoin="round" d="M283.786,1127.714v-4h21v4
		H283.786z"/>
	<path id="path3422" fill="#FFFFFF" stroke="#000000" stroke-width="1.63" stroke-linejoin="round" d="M282.786,1105.714v-5h4v2h5
		v-2h5v2h5v-2h4v5"/>
	<path id="path3424" fill="#FFFFFF" stroke="#000000" stroke-width="1.63" stroke-linecap="round" stroke-linejoin="round" d="
		M305.785,1105.714l-3,3h-17l-3-3"/>
	<path id="path3426" fill="#FFFFFF" stroke="#000000" stroke-width="1.63" d="M302.786,1108.714v12.5h-17v-12.5"/>
	<path id="path3428" fill="#FFFFFF" stroke="#000000" stroke-width="1.63" stroke-linecap="round" stroke-linejoin="round" d="
		M302.786,1121.214l1.5,2.5h-20l1.5-2.5"/>
	<path id="path3430" fill="none" stroke="#000000" stroke-width="1.63" stroke-linecap="round" d="M282.786,1105.714h23"/>
</g>
<path id="path3432" fill="#FFFFFF" stroke="#000000" stroke-width="5" stroke-linecap="round" d="M1062.081,1027.52
	c-6.772,0-12.271,5.496-12.271,12.271c0,2.715,0.902,5.253,2.396,7.285c-5.987,3.442-10.064,9.858-10.064,17.256
	c0,6.239,2.891,11.776,7.382,15.434c-9.199,3.245-22.718,17.016-22.718,41.316h70.547c0-24.302-13.519-38.071-22.717-41.316
	c4.49-3.656,7.381-9.193,7.381-15.434c0-7.397-4.077-13.813-10.064-17.256c1.495-2.032,2.396-4.57,2.396-7.285
	C1074.348,1033.016,1068.853,1027.52,1062.081,1027.52z"/>
<path id="path3434" fill="#FFFFFF" stroke="#000000" stroke-width="5" stroke-linecap="round" d="M912.043,1027.52
	c-6.771,0-12.27,5.496-12.27,12.271c0,2.715,0.901,5.253,2.396,7.285c-5.987,3.442-10.063,9.858-10.063,17.256
	c0,6.239,2.89,11.776,7.381,15.434c-9.199,3.245-22.718,17.016-22.718,41.316h70.548c0-24.302-13.519-38.071-22.718-41.316
	c4.49-3.656,7.38-9.193,7.38-15.434c0-7.397-4.076-13.813-10.063-17.256c1.495-2.032,2.396-4.57,2.396-7.285
	C924.31,1033.016,918.815,1027.52,912.043,1027.52z"/>
<path id="path3436" fill="#FFFFFF" stroke="#000000" stroke-width="5" stroke-linecap="round" d="M762.005,1027.52
	c-6.771,0-12.269,5.496-12.269,12.271c0,2.715,0.9,5.253,2.396,7.285c-5.987,3.442-10.063,9.858-10.063,17.256
	c0,6.239,2.89,11.776,7.381,15.434c-9.199,3.245-22.717,17.016-22.717,41.316h70.547c0-24.302-13.519-38.071-22.717-41.316
	c4.49-3.656,7.38-9.193,7.38-15.434c0-7.397-4.077-13.813-10.064-17.256c1.495-2.032,2.396-4.57,2.396-7.285
	C774.273,1033.016,768.777,1027.52,762.005,1027.52z"/>
<path id="path3438" fill="#FFFFFF" stroke="#000000" stroke-width="5" stroke-linecap="round" d="M611.967,1027.52
	c-6.771,0-12.269,5.496-12.269,12.271c0,2.715,0.9,5.253,2.396,7.285c-5.986,3.442-10.063,9.858-10.063,17.256
	c0,6.239,2.89,11.776,7.38,15.434c-9.199,3.245-22.717,17.016-22.717,41.316h70.547c0-24.302-13.519-38.071-22.717-41.316
	c4.49-3.656,7.381-9.193,7.381-15.434c0-7.397-4.077-13.813-10.064-17.256c1.494-2.032,2.396-4.57,2.396-7.285
	C624.236,1033.016,618.739,1027.52,611.967,1027.52z"/>
<path id="path3440" fill="#FFFFFF" stroke="#000000" stroke-width="5" stroke-linecap="round" d="M461.928,1027.52
	c-6.771,0-12.269,5.496-12.269,12.271c0,2.715,0.9,5.253,2.396,7.285c-5.986,3.442-10.063,9.858-10.063,17.256
	c0,6.239,2.89,11.776,7.38,15.434c-9.198,3.245-22.716,17.016-22.716,41.316h70.546c0-24.302-13.519-38.071-22.717-41.316
	c4.49-3.656,7.381-9.193,7.381-15.434c0-7.397-4.077-13.813-10.064-17.256c1.494-2.032,2.396-4.57,2.396-7.285
	C474.198,1033.016,468.701,1027.52,461.928,1027.52z"/>
<path id="path3442" fill="#FFFFFF" stroke="#000000" stroke-width="5" stroke-linecap="round" d="M311.889,1027.52
	c-6.771,0-12.269,5.496-12.269,12.271c0,2.715,0.902,5.253,2.396,7.285c-5.987,3.442-10.064,9.858-10.064,17.256
	c0,6.239,2.89,11.776,7.38,15.434c-9.199,3.245-22.717,17.016-22.717,41.316h70.546c0-24.302-13.519-38.071-22.717-41.316
	c4.49-3.656,7.381-9.193,7.381-15.434c0-7.397-4.077-13.813-10.064-17.256c1.494-2.032,2.396-4.57,2.396-7.285
	C324.16,1033.016,318.663,1027.52,311.889,1027.52z"/>
<path id="path3444" fill="#FFFFFF" stroke="#000000" stroke-width="5" stroke-linecap="round" d="M161.853,1027.52
	c-6.772,0-12.269,5.496-12.269,12.271c0,2.715,0.902,5.253,2.396,7.285c-5.987,3.442-10.064,9.858-10.064,17.256
	c0,6.239,2.89,11.776,7.38,15.434c-9.199,3.245-22.716,17.016-22.716,41.316h70.546c0-24.302-13.518-38.071-22.716-41.316
	c4.491-3.656,7.38-9.193,7.38-15.434c0-7.397-4.077-13.813-10.064-17.256c1.495-2.032,2.396-4.57,2.396-7.285
	C174.122,1033.016,168.625,1027.52,161.853,1027.52z"/>
<path id="path17042" stroke="#FFFFFF" stroke-width="5" stroke-linecap="round" d="M314.617,283.42
	c-6.771,0-12.269,5.497-12.269,12.271c0,2.715,0.902,5.252,2.396,7.285c-5.987,3.441-10.064,9.858-10.064,17.255
	c0,6.239,2.89,11.777,7.38,15.434c-9.199,3.245-22.716,17.015-22.716,41.316h70.546c0-24.301-13.518-38.071-22.717-41.316
	c4.491-3.657,7.381-9.195,7.381-15.434c0-7.397-4.077-13.813-10.063-17.255c1.495-2.033,2.396-4.57,2.396-7.285
	C326.886,288.917,321.388,283.42,314.617,283.42z"/>
<path id="path17044" stroke="#FFFFFF" stroke-width="5" stroke-linecap="round" d="M464.891,283.42
	c-6.771,0-12.269,5.497-12.269,12.271c0,2.715,0.901,5.252,2.396,7.285c-5.986,3.441-10.063,9.858-10.063,17.255
	c0,6.239,2.89,11.777,7.38,15.434c-9.198,3.245-22.716,17.015-22.716,41.316h70.546c0-24.301-13.519-38.071-22.717-41.316
	c4.491-3.657,7.381-9.195,7.381-15.434c0-7.397-4.077-13.813-10.064-17.255c1.494-2.033,2.396-4.57,2.396-7.285
	C477.162,288.917,471.665,283.42,464.891,283.42z"/>
<path id="path17046" stroke="#FFFFFF" stroke-width="5" stroke-linecap="round" d="M615.168,283.42
	c-6.771,0-12.269,5.497-12.269,12.271c0,2.715,0.9,5.252,2.396,7.285c-5.986,3.441-10.063,9.858-10.063,17.255
	c0,6.239,2.89,11.777,7.381,15.434c-9.199,3.245-22.718,17.015-22.718,41.316h70.548c0-24.301-13.519-38.071-22.718-41.316
	c4.491-3.657,7.381-9.195,7.381-15.434c0-7.397-4.077-13.813-10.063-17.255c1.494-2.033,2.396-4.57,2.396-7.285
	C627.435,288.917,621.94,283.42,615.168,283.42z"/>
<path id="path17048" stroke="#FFFFFF" stroke-width="5" stroke-linecap="round" d="M765.443,283.42
	c-6.772,0-12.271,5.497-12.271,12.271c0,2.715,0.902,5.252,2.396,7.285c-5.987,3.441-10.064,9.858-10.064,17.255
	c0,6.239,2.89,11.777,7.381,15.434c-9.199,3.245-22.717,17.015-22.717,41.316h70.546c0-24.301-13.518-38.071-22.716-41.316
	c4.49-3.657,7.38-9.195,7.38-15.434c0-7.397-4.077-13.813-10.064-17.255c1.495-2.033,2.396-4.57,2.396-7.285
	C777.712,288.917,772.216,283.42,765.443,283.42z"/>
<path id="path17050" stroke="#FFFFFF" stroke-width="5" stroke-linecap="round" d="M915.718,283.42
	c-6.771,0-12.269,5.497-12.269,12.271c0,2.715,0.9,5.252,2.396,7.285c-5.986,3.441-10.063,9.858-10.063,17.255
	c0,6.239,2.89,11.777,7.381,15.434c-9.199,3.245-22.717,17.015-22.717,41.316h70.546c0-24.301-13.519-38.071-22.717-41.316
	c4.49-3.657,7.381-9.195,7.381-15.434c0-7.397-4.077-13.813-10.064-17.255c1.495-2.033,2.396-4.57,2.396-7.285
	C927.987,288.917,922.49,283.42,915.718,283.42z"/>
<path id="path17052" stroke="#FFFFFF" stroke-width="5" stroke-linecap="round" d="M1065.993,283.42
	c-6.772,0-12.27,5.497-12.27,12.271c0,2.715,0.901,5.252,2.396,7.285c-5.987,3.441-10.064,9.858-10.064,17.255
	c0,6.239,2.891,11.777,7.38,15.434c-9.197,3.245-22.716,17.015-22.716,41.316h70.546c0-24.301-13.518-38.071-22.717-41.316
	c4.491-3.657,7.381-9.195,7.381-15.434c0-7.397-4.076-13.813-10.063-17.255c1.494-2.033,2.396-4.57,2.396-7.285
	C1078.262,288.917,1072.765,283.42,1065.993,283.42z"/>
<path id="path17054" stroke="#FFFFFF" stroke-width="5" stroke-linecap="round" d="M1216.267,283.42
	c-6.771,0-12.269,5.497-12.269,12.271c0,2.715,0.901,5.252,2.396,7.285c-5.985,3.441-10.062,9.858-10.062,17.255
	c0,6.239,2.889,11.777,7.38,15.434c-9.199,3.245-22.717,17.015-22.717,41.316h70.547c0-24.301-13.519-38.071-22.717-41.316
	c4.49-3.657,7.38-9.195,7.38-15.434c0-7.397-4.076-13.813-10.063-17.255c1.494-2.033,2.396-4.57,2.396-7.285
	C1228.537,288.917,1223.041,283.42,1216.267,283.42z"/>
<g id="g46309" transform="translate(352.95112,-1205.7096)">
	<path id="path46311" fill="none" stroke="#FFFFFF" stroke-width="10" stroke-linejoin="round" d="M-227.128,1436.206h85.549v-9.705
		h-85.549v9.096V1436.206L-227.128,1436.206z"/>
	<path id="path46313" fill="none" stroke="#FFFFFF" stroke-width="5" stroke-linejoin="round" d="M-217.25,1415.526l5.106-8.088
		h54.832l5.106,8.088H-217.25z"/>
	<path id="path46315" fill="none" stroke="#FFFFFF" stroke-width="10" stroke-linejoin="round" d="M-217.273,1428.466v-12.94h65.519
		v12.94H-217.273z"/>
	<path id="path46317" fill="none" stroke="#FFFFFF" stroke-width="10" d="M-211.429,1407.438v-42.055h53.403v42.055H-211.429z"/>
	<path id="path46319" fill="none" stroke="#FFFFFF" stroke-width="10" stroke-linejoin="round" d="M-210.537,1367.259l-10.211-8.087
		l72.719-0.178l-10.212,8.087L-210.537,1367.259z"/>
	<path id="path46321" fill="none" stroke="#FFFFFF" stroke-width="10" stroke-linejoin="round" d="M-220.748,1357.296v-14.746
		h13.901v6.47h14.02v-6.47h18.163v6.47h12.091v-6.47h14.401v14.746H-220.748z"/>
	<path id="path46323" stroke="#000000" stroke-width="1.5" stroke-linejoin="round" d="M-225.792,1436.133h82.815v-9.203h-82.815
		V1436.133z"/>
	<path id="path46325" stroke="#000000" stroke-width="1.5" stroke-linejoin="round" d="M-215.057,1414.66l4.601-7.669h52.143
		l4.601,7.669H-215.057z"/>
	<path id="path46327" stroke="#000000" stroke-width="1.5" stroke-linejoin="round" d="M-216.59,1426.93v-12.271h64.412v12.271
		H-216.59z"/>
	<path id="path46329" stroke="#000000" stroke-width="1.5" d="M-210.456,1406.991v-39.878h52.143v39.878H-210.456z"/>
	<path id="path46331" stroke="#000000" stroke-width="1.5" stroke-linejoin="round" d="M-210.456,1367.113l-9.202-7.669h70.546
		l-9.202,7.669H-210.456z"/>
	<path id="path46333" stroke="#000000" stroke-width="1.5" stroke-linejoin="round" d="M-219.658,1359.444v-15.338h12.269v6.135
		h15.336v-6.135h15.336v6.135h15.336v-6.135h12.269v15.338H-219.658z"/>
	<path id="path46335" fill="none" stroke="#FFFFFF" stroke-width="4" stroke-linecap="round" d="M-216.59,1423.968h64.412l0,0"/>
	<path id="path46337" fill="none" stroke="#FFFFFF" stroke-width="4" stroke-linecap="round" d="M-213.524,1412.055h58.277"/>
	<path id="path46339" fill="none" stroke="#FFFFFF" stroke-linecap="round" d="M-210.456,1406.991h52.143"/>
	<path id="path46341" fill="none" stroke="#FFFFFF" stroke-linecap="round" d="M-210.456,1367.113h52.143"/>
	<path id="path46343" fill="none" stroke="#FFFFFF" stroke-width="4" stroke-linecap="round" d="M-219.658,1359.444h70.546"/>
</g>
<g id="g46345" transform="translate(1398.5609,-1205.7096)">
	<path id="path46347" fill="none" stroke="#FFFFFF" stroke-width="10" stroke-linejoin="round" d="M-227.128,1436.206h85.549v-9.705
		h-85.549v9.096V1436.206z"/>
	<path id="path46349" fill="none" stroke="#FFFFFF" stroke-width="5" stroke-linejoin="round" d="M-217.251,1415.526l5.105-8.088
		h54.832l5.104,8.088H-217.251z"/>
	<path id="path46351" fill="none" stroke="#FFFFFF" stroke-width="10" stroke-linejoin="round" d="M-217.273,1428.466v-12.94h65.519
		v12.94H-217.273z"/>
	<path id="path46353" fill="none" stroke="#FFFFFF" stroke-width="10" d="M-211.429,1407.438v-42.055h53.402v42.055H-211.429z"/>
	<path id="path46355" fill="none" stroke="#FFFFFF" stroke-width="10" stroke-linejoin="round" d="M-210.538,1367.259l-10.212-8.087
		l72.721-0.178l-10.212,8.087L-210.538,1367.259z"/>
	<path id="path46357" fill="none" stroke="#FFFFFF" stroke-width="10" stroke-linejoin="round" d="M-220.75,1357.296v-14.746h13.901
		v6.47h14.021v-6.47h18.161v6.47h12.092v-6.47h14.4v14.746H-220.75z"/>
	<path id="path46359" stroke="#000000" stroke-width="1.5" stroke-linejoin="round" d="M-225.793,1436.133h82.815v-9.203h-82.815
		V1436.133z"/>
	<path id="path46361" stroke="#000000" stroke-width="1.5" stroke-linejoin="round" d="M-215.057,1414.66l4.602-7.669h52.144
		l4.601,7.669H-215.057z"/>
	<path id="path46363" stroke="#000000" stroke-width="1.5" stroke-linejoin="round" d="M-216.59,1426.93v-12.271h64.412v12.271
		H-216.59z"/>
	<path id="path46365" stroke="#000000" stroke-width="1.5" d="M-210.457,1406.991v-39.878h52.144v39.878H-210.457z"/>
	<path id="path46367" stroke="#000000" stroke-width="1.5" stroke-linejoin="round" d="M-210.457,1367.113l-9.201-7.669h70.546
		l-9.201,7.669H-210.457z"/>
	<path id="path46369" stroke="#000000" stroke-width="1.5" stroke-linejoin="round" d="M-219.658,1359.444v-15.338h12.269v6.135
		h15.336v-6.135h15.337v6.135h15.336v-6.135h12.27v15.338H-219.658z"/>
	<path id="path46371" fill="none" stroke="#FFFFFF" stroke-width="4" stroke-linecap="round" d="M-216.59,1423.968h64.412l0,0"/>
	<path id="path46373" fill="none" stroke="#FFFFFF" stroke-width="4" stroke-linecap="round" d="M-213.523,1412.055h58.276"/>
	<path id="path46375" fill="none" stroke="#FFFFFF" stroke-linecap="round" d="M-210.457,1406.991h52.144"/>
	<path id="path46377" fill="none" stroke="#FFFFFF" stroke-linecap="round" d="M-210.457,1367.113h52.144"/>
	<path id="path46379" fill="none" stroke="#FFFFFF" stroke-width="4" stroke-linecap="round" d="M-219.658,1359.444h70.546"/>
</g>
<g id="g60673" transform="translate(-79.844704,-658.59289)">
	<path id="path60675" d="M395.847,1836.291c37.531,4.161,54.642,26.149,53.008,94.791H372.97
		c-0.893-36.918,30.719-21.425,24.182-68.82"/>
	<path id="path60677" d="M405.985,1863.176c1.371,9.71-16.585,24.578-25.312,30.021c-10.697,6.671-10.052,14.484-17.828,13.342
		c-4.119-5.333,0.434-5.903-3.565-3.335c-3.565,0-14.274,3.335-14.263-13.343c0-6.672,18.894-40.026,18.894-40.026
		s5.295-6.344,5.703-11.674c-2.589-3.316-1.068-6.671-1.068-10.007c3.565-3.335,12.661,8.339,12.661,8.339h4.274
		c0,0,3.68-6.646,9.807-10.007c3.565,0,3.565,10.007,3.565,10.007"/>
	<path id="path60679" fill="#F2F2F2" d="M354.994,1886.955c0,0.901-0.732,1.634-1.634,1.634c-0.903,0-1.634-0.73-1.634-1.634
		s0.731-1.636,1.634-1.636C354.262,1885.321,354.994,1886.053,354.994,1886.955z"/>
	<path id="path60681" fill="#F2F2F2" d="M372.75,1855.085c-1.354,2.346-3.084,3.881-3.866,3.43
		c-0.782-0.451-0.318-2.719,1.036-5.062c1.354-2.346,3.084-3.88,3.866-3.43C374.568,1850.474,374.104,1852.74,372.75,1855.085z"/>
	<path id="path60683" d="M404.181,1837.599l-0.979,3.596l1.798,0.326c10.136,1.561,20.667,7.304,28.025,21.227
		c7.357,13.923,9.551,35.835,7.926,68.336l-0.164,0.027h5.72v-0.027c1.645-32.873-2.864-55.088-10.622-69.766
		c-7.757-14.679-18.92-21.684-30.026-23.393L404.181,1837.599z"/>
	<path id="path60685" fill="#FFFFFF" stroke="#000000" stroke-linecap="round" d="M396.952,1839.188
		c32.206,3.067,50.609,24.54,49.076,88.959h-70.547c0-27.606,30.673-19.938,24.538-64.419"/>
	<path id="path60687" fill="#FFFFFF" stroke="#000000" stroke-linecap="round" stroke-linejoin="round" d="M403.087,1863.728
		c1.179,8.932-17.032,22.604-24.538,27.608c-9.202,6.135-8.647,13.322-15.336,12.271c-3.195-2.896,4.335-9.317,0-9.202
		c-3.067,0,0.574,3.777-3.067,6.136c-3.067,0-12.279,3.066-12.269-12.271c0-6.135,18.403-36.811,18.403-36.811
		s5.785-5.835,6.135-10.736c-2.227-3.051-1.534-6.136-1.534-9.203c3.067-3.066,9.202,7.669,9.202,7.669h6.134
		c0,0,2.398-6.109,7.668-9.202c3.067,0,3.067,9.202,3.067,9.202"/>
	<path id="path60689" stroke="#000000" stroke-width="0.326" stroke-linecap="round" stroke-linejoin="round" d="M358.612,1886.735
		c0,0.848-0.687,1.533-1.534,1.533c-0.847,0-1.534-0.687-1.534-1.533c0-0.848,0.687-1.533,1.534-1.533
		C357.925,1885.201,358.612,1885.888,358.612,1886.735z"/>
	<path id="path60691" stroke="#000000" stroke-width="0.326" stroke-linecap="round" stroke-linejoin="round" d="M375.276,1856.826
		c-1.271,2.2-2.896,3.642-3.629,3.218s-0.298-2.551,0.972-4.752c1.271-2.2,2.896-3.642,3.629-3.218
		S376.547,1854.625,375.276,1856.826z"/>
	<path id="path60693" d="M403.844,1840.415l-0.92,3.374l1.688,0.307c9.513,1.464,19.396,6.854,26.301,19.92
		c6.906,13.066,9.892,32.666,8.367,63.167l-0.153,1.533h5.367v-1.533c1.542-30.851-3.617-50.733-10.896-64.509
		c-7.279-13.774-17.757-20.349-28.181-21.952L403.844,1840.415z"/>
</g>
<g id="g60695" transform="translate(666.31168,-658.59289)">
	<path id="path60697" d="M395.846,1836.291c37.531,4.161,54.643,26.149,53.008,94.791h-75.886
		c-0.894-36.918,30.72-21.425,24.183-68.82"/>
	<path id="path60699" d="M405.986,1863.176c1.37,9.71-16.586,24.578-25.312,30.021c-10.695,6.671-10.052,14.484-17.827,13.342
		c-4.118-5.333,0.435-5.903-3.565-3.335c-3.565,0-14.273,3.335-14.263-13.343c0-6.672,18.895-40.026,18.895-40.026
		s5.295-6.344,5.702-11.674c-2.589-3.316-1.068-6.671-1.068-10.007c3.565-3.335,12.661,8.339,12.661,8.339h4.274
		c0,0,3.68-6.646,9.807-10.007c3.565,0,3.565,10.007,3.565,10.007"/>
	<path id="path60701" fill="#F2F2F2" d="M354.993,1886.955c0,0.901-0.73,1.634-1.634,1.634s-1.634-0.73-1.634-1.634
		s0.73-1.636,1.634-1.636S354.993,1886.053,354.993,1886.955z"/>
	<path id="path60703" fill="#F2F2F2" d="M372.75,1855.085c-1.354,2.346-3.085,3.881-3.866,3.43c-0.78-0.451-0.316-2.719,1.036-5.062
		c1.354-2.344,3.085-3.88,3.866-3.43C374.568,1850.474,374.104,1852.74,372.75,1855.085z"/>
	<path id="path60705" d="M404.18,1837.599l-0.979,3.596l1.798,0.326c10.137,1.561,20.667,7.304,28.025,21.227
		c7.357,13.923,9.551,35.835,7.926,68.336l-0.163,0.027h5.72v-0.027c1.644-32.873-2.864-55.088-10.623-69.766
		c-7.757-14.679-18.92-21.684-30.026-23.393L404.18,1837.599z"/>
	<path id="path60707" fill="#FFFFFF" stroke="#000000" stroke-linecap="round" d="M396.952,1839.188
		c32.206,3.067,50.609,24.54,49.076,88.959h-70.547c0-27.606,30.673-19.938,24.538-64.419"/>
	<path id="path60709" fill="#FFFFFF" stroke="#000000" stroke-linecap="round" stroke-linejoin="round" d="M403.086,1863.728
		c1.181,8.932-17.031,22.604-24.538,27.608c-9.2,6.135-8.646,13.322-15.336,12.271c-3.194-2.896,4.335-9.317,0-9.202
		c-3.066,0,0.574,3.777-3.066,6.136c-3.067,0-12.278,3.066-12.27-12.271c0-6.135,18.403-36.811,18.403-36.811
		s5.784-5.835,6.135-10.736c-2.228-3.051-1.534-6.136-1.534-9.203c3.067-3.066,9.202,7.669,9.202,7.669h6.134
		c0,0,2.398-6.109,7.669-9.202c3.066,0,3.066,9.202,3.066,9.202"/>
	<path id="path60711" stroke="#000000" stroke-width="0.326" stroke-linecap="round" stroke-linejoin="round" d="M358.612,1886.735
		c0,0.848-0.688,1.533-1.534,1.533s-1.533-0.687-1.533-1.533c0-0.848,0.688-1.533,1.533-1.533
		C357.925,1885.201,358.612,1885.888,358.612,1886.735z"/>
	<path id="path60713" stroke="#000000" stroke-width="0.326" stroke-linecap="round" stroke-linejoin="round" d="M375.276,1856.826
		c-1.271,2.2-2.896,3.642-3.629,3.218c-0.733-0.424-0.298-2.551,0.973-4.752c1.271-2.2,2.895-3.642,3.629-3.218
		C376.982,1852.498,376.546,1854.625,375.276,1856.826z"/>
	<path id="path60715" d="M403.843,1840.415l-0.92,3.374l1.688,0.307c9.513,1.464,19.396,6.854,26.301,19.92
		c6.906,13.066,9.893,32.666,8.367,63.167l-0.153,1.533h5.367v-1.533c1.543-30.851-3.616-50.733-10.896-64.509
		c-7.28-13.774-17.758-20.349-28.182-21.952L403.843,1840.415z"/>
</g>
<g id="g49858" transform="translate(831.97802,-1696.8155)">
	<path id="path48825" fill="#FFFFFF" d="M231.714,1837.494c37.531,4.162,54.642,26.149,53.007,94.792h-75.885
		c-0.894-36.918,30.719-21.425,24.182-68.821"/>
	<path id="path48827" fill="#FFFFFF" d="M241.853,1864.379c1.371,9.71-16.586,24.578-25.312,30.02
		c-10.696,6.671-10.053,14.486-17.827,13.342c-4.119-5.333,0.434-5.904-3.566-3.335c-3.565,0-14.272,3.335-14.262-13.342
		c0-6.671,18.894-40.026,18.894-40.026s5.296-6.345,5.702-11.674c-2.589-3.317-1.068-6.671-1.068-10.007
		c3.565-3.335,12.661,8.339,12.661,8.339h4.274c0,0,3.681-6.644,9.807-10.007c3.565,0,3.565,10.007,3.565,10.007"/>
	<path id="path48829" fill="#F2F2F2" d="M190.861,1888.158c0,0.902-0.73,1.634-1.635,1.634c-0.902,0-1.634-0.732-1.634-1.634
		c0-0.903,0.73-1.635,1.634-1.635C190.129,1886.524,190.861,1887.256,190.861,1888.158z"/>
	<path id="path48831" fill="#F2F2F2" d="M208.617,1856.289c-1.354,2.345-3.085,3.88-3.867,3.429
		c-0.78-0.451-0.316-2.718,1.036-5.063c1.354-2.345,3.085-3.88,3.867-3.429C210.435,1851.677,209.971,1853.944,208.617,1856.289z"/>
	<path id="path48833" fill="#FFFFFF" d="M240.048,1838.802l-0.98,3.596l1.798,0.327c10.138,1.56,20.667,7.303,28.025,21.226
		c7.359,13.923,9.551,35.835,7.926,68.336l-0.163,0.027h5.72v-0.027c1.645-32.873-2.864-55.088-10.621-69.766
		c-7.759-14.678-18.92-21.683-30.027-23.392L240.048,1838.802z"/>
	<path id="path48837" stroke="#000000" stroke-linecap="round" d="M232.82,1840.391c32.205,3.067,50.608,24.541,49.075,88.959
		h-70.546c0-27.608,30.672-19.939,24.537-64.418"/>
	<path id="path48839" stroke="#000000" stroke-linecap="round" stroke-linejoin="round" d="M238.953,1864.931
		c1.181,8.93-17.031,22.604-24.537,27.608c-9.201,6.135-8.646,13.322-15.337,12.271c-3.194-2.896,4.337-9.318,0-9.203
		c-3.066,0,0.575,3.779-3.066,6.135c-3.066,0-12.278,3.068-12.27-12.27c0-6.135,18.403-36.811,18.403-36.811
		s5.784-5.835,6.135-10.737c-2.228-3.05-1.534-6.135-1.534-9.203c3.067-3.067,9.202,7.669,9.202,7.669h6.135
		c0,0,2.397-6.11,7.669-9.203c3.066,0,3.066,9.203,3.066,9.203"/>
	<path id="path48841" fill="#FFFFFF" stroke="#FFFFFF" stroke-width="0.326" stroke-linecap="round" stroke-linejoin="round" d="
		M194.479,1887.938c0,0.847-0.688,1.534-1.533,1.534c-0.848,0-1.534-0.687-1.534-1.534s0.688-1.534,1.534-1.534
		C193.791,1886.405,194.479,1887.091,194.479,1887.938z"/>
	<path id="path48843" fill="#FFFFFF" stroke="#FFFFFF" stroke-width="0.326" stroke-linecap="round" stroke-linejoin="round" d="
		M211.143,1858.03c-1.271,2.201-2.896,3.642-3.628,3.218c-0.733-0.423-0.299-2.551,0.972-4.751c1.271-2.201,2.896-3.642,3.629-3.218
		C212.849,1853.701,212.412,1855.828,211.143,1858.03z"/>
	<path id="path48845" fill="#FFFFFF" d="M239.712,1841.618l-0.921,3.375l1.688,0.307c9.513,1.464,19.396,6.854,26.302,19.92
		s9.893,32.666,8.366,63.167l-0.153,1.534h5.368v-1.534c1.542-30.85-3.617-50.734-10.896-64.509
		c-7.28-13.774-17.756-20.348-28.182-21.952L239.712,1841.618z"/>
</g>
<g id="g60728" transform="translate(85.113978,-1696.8155)">
	<path id="path60730" fill="#FFFFFF" d="M231.714,1837.494c37.532,4.162,54.642,26.149,53.008,94.792h-75.886
		c-0.893-36.918,30.719-21.425,24.183-68.821"/>
	<path id="path60732" fill="#FFFFFF" d="M241.853,1864.379c1.371,9.71-16.585,24.578-25.311,30.02
		c-10.697,6.671-10.052,14.486-17.828,13.342c-4.119-5.333,0.434-5.904-3.566-3.335c-3.565,0-14.274,3.335-14.262-13.342
		c0-6.671,18.894-40.026,18.894-40.026s5.296-6.345,5.703-11.674c-2.589-3.317-1.068-6.671-1.068-10.007
		c3.565-3.335,12.661,8.339,12.661,8.339h4.274c0,0,3.681-6.644,9.809-10.007c3.564,0,3.564,10.007,3.564,10.007"/>
	<path id="path60734" fill="#F2F2F2" d="M190.861,1888.158c0,0.902-0.731,1.634-1.634,1.634c-0.902,0-1.634-0.732-1.634-1.634
		c0-0.903,0.732-1.635,1.634-1.635C190.129,1886.524,190.861,1887.256,190.861,1888.158z"/>
	<path id="path60736" fill="#F2F2F2" d="M208.617,1856.289c-1.354,2.345-3.085,3.88-3.867,3.429
		c-0.781-0.451-0.317-2.718,1.036-5.063c1.354-2.345,3.085-3.88,3.867-3.429C210.435,1851.677,209.971,1853.944,208.617,1856.289z"
		/>
	<path id="path60738" fill="#FFFFFF" d="M240.049,1838.802l-0.98,3.596l1.798,0.327c10.137,1.56,20.668,7.303,28.025,21.226
		c7.358,13.923,9.55,35.835,7.926,68.336l-0.164,0.027h5.721v-0.027c1.644-32.873-2.864-55.088-10.622-69.766
		c-7.758-14.678-18.92-21.683-30.027-23.392L240.049,1838.802z"/>
	<path id="path60740" stroke="#000000" stroke-linecap="round" d="M232.819,1840.391c32.206,3.067,50.609,24.541,49.075,88.959
		h-70.546c0-27.608,30.672-19.939,24.538-64.418"/>
	<path id="path60742" stroke="#000000" stroke-linecap="round" stroke-linejoin="round" d="M238.953,1864.931
		c1.18,8.93-17.031,22.604-24.539,27.608c-9.202,6.135-8.647,13.322-15.336,12.271c-3.195-2.896,4.335-9.318,0-9.203
		c-3.067,0,0.575,3.779-3.067,6.135c-3.067,0-12.278,3.068-12.269-12.27c0-6.135,18.403-36.811,18.403-36.811
		s5.784-5.835,6.134-10.737c-2.227-3.05-1.534-6.135-1.534-9.203c3.067-3.067,9.202,7.669,9.202,7.669h6.135
		c0,0,2.396-6.11,7.668-9.203c3.066,0,3.066,9.203,3.066,9.203"/>
	<path id="path60744" fill="#FFFFFF" stroke="#FFFFFF" stroke-width="0.326" stroke-linecap="round" stroke-linejoin="round" d="
		M194.479,1887.938c0,0.847-0.687,1.534-1.533,1.534c-0.847,0-1.534-0.687-1.534-1.534s0.687-1.534,1.534-1.534
		C193.792,1886.405,194.479,1887.091,194.479,1887.938z"/>
	<path id="path60746" fill="#FFFFFF" stroke="#FFFFFF" stroke-width="0.326" stroke-linecap="round" stroke-linejoin="round" d="
		M211.143,1858.03c-1.271,2.201-2.895,3.642-3.628,3.218c-0.734-0.423-0.298-2.551,0.972-4.751c1.271-2.201,2.895-3.642,3.628-3.218
		C212.849,1853.701,212.414,1855.828,211.143,1858.03z"/>
	<path id="path60748" fill="#FFFFFF" d="M239.712,1841.618l-0.92,3.375l1.687,0.307c9.514,1.464,19.396,6.854,26.302,19.92
		c6.906,13.066,9.893,32.666,8.366,63.167l-0.152,1.534h5.367v-1.534c1.542-30.85-3.616-50.734-10.896-64.509
		c-7.28-13.774-17.756-20.348-28.18-21.952L239.712,1841.618z"/>
</g>
<g id="g63721" transform="translate(569.96914,60.63509)">
	<g id="g60798" transform="matrix(3.4156897,0,0,3.3289941,-1005.3432,-2662.945)">
		<path id="path60800" fill="#FFFFFF" stroke="#FFFFFF" stroke-width="0.4448" stroke-linejoin="round" d="M250.786,848.362
			c2.471-1.234,10.115,0.127,13.5-2.303c3.385,2.431,11.125,0.964,13.352,2.303c2.203,1.325,1.942,0.902,2.557,2.589
			c-0.677,0.972-1.054,1.593-2.408,1.107c-3.385-0.972-10.115,0.458-13.5-1c-3.385,1.458-10.115,0.028-13.5,1
			c-1.354,0.486-1.731-0.211-2.409-1.183C249.731,848.93,248.435,849.535,250.786,848.362z"/>
		<path id="path60802" fill="#FFFFFF" stroke="#FFFFFF" stroke-width="0.4448" stroke-linejoin="round" d="M256.786,845.557
			c2.5,2.5,12.5,2.5,15,0c0.5-1.5,0-2,0-2c0-2.5-2.063-4-2.063-4c5.5-1.5,5.562-11.5-5.438-15.5c-11,4-10.722,14.152-5.222,15.652
			c0,0-2.352,0.969-2.352,3.469C256.712,843.178,256.286,844.057,256.786,845.557z"/>
		<path id="path60804" fill="#FFFFFF" stroke="#FFFFFF" stroke-width="0.3651" stroke-linejoin="round" d="M267.311,822.842
			c0,1.636-1.402,2.962-3.132,2.962s-3.132-1.326-3.132-2.962c0-1.636,1.402-2.962,3.132-2.962
			C265.908,819.879,267.311,821.206,267.311,822.842z"/>
		<path id="path60806" fill="#FF8BFF" stroke="#FF78FF" stroke-width="0.4448" stroke-linecap="round" d="M259.286,839.557h10"/>
		<path id="path60810" fill="#FF8BFF" stroke="#FF78FF" stroke-width="0.4448" stroke-linecap="round" d="M264.286,829.057v5"/>
		<path id="path60812" fill="#FF8BFF" stroke="#FF78FF" stroke-width="0.4448" stroke-linecap="round" d="M261.786,831.557h5"/>
	</g>
	<g id="g60782" transform="matrix(3.067229,0,0,3.067558,-913.48194,-2443.602)">
		<path id="path60784" stroke="#000000" stroke-width="0.489" stroke-linejoin="round" d="M250.786,849.557
			c3.385-0.972,10.115,0.431,13.5-2c3.385,2.431,10.115,1.028,13.5,2c0,0,1.646,0.542,3,2c-0.677,0.972-1.646,0.986-3,0.5
			c-3.385-0.972-10.115,0.458-13.5-1c-3.385,1.459-10.115,0.028-13.5,1c-1.354,0.486-2.323,0.472-3-0.5
			C249.14,849.612,250.786,849.557,250.786,849.557z"/>
		<path id="path60786" stroke="#000000" stroke-width="0.489" stroke-linejoin="round" d="M256.786,845.557c2.5,2.5,12.5,2.5,15,0
			c0.5-1.5,0-2,0-2c0-2.5-2.5-4-2.5-4c5.5-1.5,6-11.5-5-15.5c-11,4-10.5,14-5,15.5c0,0-2.5,1.5-2.5,4
			C256.786,843.557,256.286,844.057,256.786,845.557z"/>
		<path id="path60788" stroke="#000000" stroke-width="0.489" stroke-linejoin="round" d="M266.786,821.557
			c0,1.381-1.119,2.5-2.5,2.5c-1.381,0-2.5-1.119-2.5-2.5c0-1.381,1.119-2.5,2.5-2.5
			C265.666,819.057,266.786,820.176,266.786,821.557z"/>
		<path id="path60790" fill="none" stroke="#FFFFFF" stroke-width="0.489" stroke-linecap="round" d="M259.286,839.557h10"/>
		<path id="path60792" fill="none" stroke="#FFFFFF" stroke-width="0.489" stroke-linecap="round" d="M256.786,843.557h15"/>
		<path id="path60794" fill="none" stroke="#FFFFFF" stroke-width="0.489" stroke-linecap="round" d="M264.286,829.057v5"/>
		<path id="path60796" fill="none" stroke="#FFFFFF" stroke-width="0.489" stroke-linecap="round" d="M261.786,831.557h5"/>
	</g>
</g>
<g id="g63818" transform="translate(1018.0876,60.63509)">
	<g id="g63820" transform="matrix(3.4156897,0,0,3.3289941,-1005.3432,-2662.945)">
		<path id="path63822" fill="#FFFFFF" stroke="#FFFFFF" stroke-width="0.4448" stroke-linejoin="round" d="M250.786,848.362
			c2.471-1.234,10.115,0.127,13.5-2.303c3.385,2.431,11.125,0.964,13.352,2.303c2.202,1.325,1.942,0.902,2.556,2.589
			c-0.677,0.972-1.054,1.593-2.408,1.107c-3.385-0.972-10.115,0.458-13.5-1c-3.385,1.458-10.114,0.028-13.5,1
			c-1.354,0.486-1.731-0.211-2.408-1.183C249.731,848.93,248.435,849.535,250.786,848.362z"/>
		<path id="path63824" fill="#FFFFFF" stroke="#FFFFFF" stroke-width="0.4448" stroke-linejoin="round" d="M256.786,845.557
			c2.5,2.5,12.5,2.5,15,0c0.5-1.5,0-2,0-2c0-2.5-2.062-4-2.062-4c5.5-1.5,5.562-11.5-5.438-15.5c-11,4-10.722,14.152-5.222,15.652
			c0,0-2.352,0.969-2.352,3.469C256.712,843.178,256.286,844.057,256.786,845.557z"/>
		<path id="path63826" fill="#FFFFFF" stroke="#FFFFFF" stroke-width="0.3651" stroke-linejoin="round" d="M267.311,822.842
			c0,1.636-1.402,2.962-3.132,2.962s-3.132-1.326-3.132-2.962c0-1.636,1.402-2.962,3.132-2.962
			C265.908,819.879,267.311,821.206,267.311,822.842z"/>
		<path id="path63828" fill="#FF8BFF" stroke="#FF78FF" stroke-width="0.4448" stroke-linecap="round" d="M259.286,839.557h10"/>
		<path id="path63830" fill="#FF8BFF" stroke="#FF78FF" stroke-width="0.4448" stroke-linecap="round" d="M264.286,829.057v5"/>
		<path id="path63832" fill="#FF8BFF" stroke="#FF78FF" stroke-width="0.4448" stroke-linecap="round" d="M261.786,831.557h5"/>
	</g>
	<g id="g63834" transform="matrix(3.067229,0,0,3.067558,-913.48194,-2443.602)">
		<path id="path63836" stroke="#000000" stroke-width="0.489" stroke-linejoin="round" d="M250.786,849.557
			c3.385-0.972,10.114,0.431,13.5-2c3.385,2.431,10.115,1.028,13.5,2c0,0,1.646,0.542,3,2c-0.677,0.972-1.646,0.986-3,0.5
			c-3.385-0.972-10.115,0.458-13.5-1c-3.385,1.459-10.115,0.028-13.5,1c-1.354,0.486-2.323,0.472-3-0.5
			C249.14,849.612,250.786,849.557,250.786,849.557z"/>
		<path id="path63838" stroke="#000000" stroke-width="0.489" stroke-linejoin="round" d="M256.786,845.557c2.5,2.5,12.5,2.5,15,0
			c0.5-1.5,0-2,0-2c0-2.5-2.5-4-2.5-4c5.5-1.5,6-11.5-5-15.5c-11,4-10.5,14-5,15.5c0,0-2.5,1.5-2.5,4
			C256.786,843.557,256.286,844.057,256.786,845.557z"/>
		<path id="path63840" stroke="#000000" stroke-width="0.489" stroke-linejoin="round" d="M266.786,821.557
			c0,1.381-1.119,2.5-2.5,2.5c-1.381,0-2.5-1.119-2.5-2.5c0-1.381,1.119-2.5,2.5-2.5
			C265.667,819.057,266.786,820.176,266.786,821.557z"/>
		<path id="path63842" fill="none" stroke="#FFFFFF" stroke-width="0.489" stroke-linecap="round" d="M259.286,839.557h10"/>
		<path id="path63844" fill="none" stroke="#FFFFFF" stroke-width="0.489" stroke-linecap="round" d="M256.786,843.557h15"/>
		<path id="path63846" fill="none" stroke="#FFFFFF" stroke-width="0.489" stroke-linecap="round" d="M264.286,829.057v5"/>
		<path id="path63848" fill="none" stroke="#FFFFFF" stroke-width="0.489" stroke-linecap="round" d="M261.786,831.557h5"/>
	</g>
</g>
<g id="g67023" transform="translate(-635.2069,-183.81459)">
	<path id="path67025" fill="#FFFFFF" stroke="#FFFFFF" stroke-width="0.2277" stroke-linecap="round" stroke-linejoin="round" d="
		M1211.104,330.894c0,4.851-3.933,8.784-8.782,8.784s-8.783-3.933-8.783-8.784s3.934-8.784,8.783-8.784
		S1211.104,326.043,1211.104,330.894z"/>
	<path id="path67027" fill="#FFFFFF" stroke="#FFFFFF" stroke-width="0.2277" stroke-linecap="round" stroke-linejoin="round" d="
		M1235.927,319.879c0,4.851-3.932,8.784-8.782,8.784c-4.852,0-8.782-3.933-8.782-8.784s3.932-8.784,8.782-8.784
		S1235.927,315.028,1235.927,319.879z"/>
	<path id="path67029" fill="#FFFFFF" stroke="#FFFFFF" stroke-width="0.2277" stroke-linecap="round" stroke-linejoin="round" d="
		M1261.94,317.102c0,4.851-3.934,8.784-8.783,8.784c-4.851,0-8.782-3.933-8.782-8.784c0-4.851,3.932-8.784,8.782-8.784
		C1258.006,308.317,1261.94,312.25,1261.94,317.102z"/>
	<path id="path67031" fill="#FFFFFF" stroke="#FFFFFF" stroke-width="0.2277" stroke-linecap="round" stroke-linejoin="round" d="
		M1288.203,322.152c0,4.851-3.932,8.784-8.782,8.784c-4.85,0-8.782-3.933-8.782-8.784s3.933-8.784,8.782-8.784
		C1284.271,313.368,1288.203,317.301,1288.203,322.152z"/>
	<path id="path67033" fill="#FFFFFF" stroke="#FFFFFF" stroke-linejoin="round" d="M1207.478,371.167
		c29.277-5.167,70.565-5.167,91.232,0l5.627-44.874l-22.092,32.843l-1.01-42.42l-18.188,43.475l-10.081-49.4l-9.828,48.643
		l-18.187-43.683l-0.253,46.163l-22.091-33.601L1207.478,371.167z"/>
	<path id="path67035" fill="#FFFFFF" stroke="#FFFFFF" stroke-linejoin="round" d="M1207.478,371.167
		c0,6.89,4.155,7.647,7.602,14.537c3.444,5.167,4.454,2.688,2.732,11.299c-5.167,3.445-5.167,8.612-5.167,8.612
		c-5.167,5.167,1.723,10.612,1.723,10.612c22.39,3.445,54.813,3.445,77.203,0c0,0,5.166-5.445,0-10.612c0,0,1.722-5.167-3.445-8.612
		c-1.722-8.612,0.3-6.89,3.743-12.057c3.444-6.89,6.591-6.89,6.591-13.78C1269.181,366,1236.755,366,1207.478,371.167z"/>
	<path id="path67037" fill="#FFFFFF" stroke="#FFFFFF" stroke-width="0.2277" stroke-linecap="round" stroke-linejoin="round" d="
		M1312.699,330.738c0,4.851-3.932,8.784-8.782,8.784c-4.85,0-8.783-3.933-8.783-8.784c0-4.852,3.934-8.784,8.783-8.784
		C1308.767,321.955,1312.699,325.887,1312.699,330.738z"/>
	<g id="g67039" transform="matrix(3.067229,0,0,3.067558,-1332.787,-2735.3764)">
		<path id="path67041" stroke="#000000" stroke-width="0.326" stroke-linecap="round" stroke-linejoin="round" d="M828.619,999.625
			c0,1.104-0.896,2-2,2c-1.104,0-2-0.896-2-2c0-1.105,0.896-2,2-2C827.723,997.625,828.619,998.52,828.619,999.625z"/>
		<path id="path67043" stroke="#000000" stroke-width="0.326" stroke-linecap="round" stroke-linejoin="round" d="M845.119,995.125
			c0,1.105-0.896,2-2,2c-1.104,0-2-0.895-2-2c0-1.105,0.896-2,2-2C844.223,993.125,845.119,994.02,845.119,995.125z"/>
		<path id="path67045" stroke="#000000" stroke-width="0.326" stroke-linecap="round" stroke-linejoin="round" d="M861.619,999.625
			c0,1.104-0.896,2-2,2c-1.104,0-2-0.896-2-2c0-1.105,0.896-2,2-2C860.723,997.625,861.619,998.52,861.619,999.625z"/>
		<path id="path67047" stroke="#000000" stroke-width="0.326" stroke-linecap="round" stroke-linejoin="round" d="M836.619,996.125
			c0,1.104-0.896,2-2,2c-1.104,0-2-0.895-2-2s0.896-2,2-2C835.723,994.125,836.619,995.02,836.619,996.125z"/>
		<path id="path67049" stroke="#000000" stroke-width="0.326" stroke-linecap="round" stroke-linejoin="round" d="M853.619,996.625
			c0,1.105-0.895,2-2,2c-1.104,0-2-0.896-2-2c0-1.104,0.896-2,2-2C852.723,994.625,853.619,995.521,853.619,996.625z"/>
		<path id="path67051" stroke="#000000" stroke-width="0.326" stroke-linejoin="round" d="M829.619,1013.625c8.5-1.5,21-1.5,27,0
			l2-12l-7,11v-14l-5.5,13.5l-3-15l-3,15l-5.5-14v14.5l-7-11L829.619,1013.625z"/>
		<path id="path67053" stroke="#000000" stroke-width="0.326" stroke-linejoin="round" d="M829.619,1013.625c0,2,1.5,2,2.5,4
			c1,1.5,1,1,0.5,3.5c-1.5,1-1.5,2.5-1.5,2.5c-1.5,1.5,0.5,2.5,0.5,2.5c6.5,1,16.5,1,23,0c0,0,1.5-1,0-2.5c0,0,0.5-1.5-1-2.5
			c-0.5-2.5-0.5-2,0.5-3.5c1-2,2.5-2,2.5-4C848.119,1012.125,838.119,1012.125,829.619,1013.625z"/>
		<path id="path67055" fill="none" stroke="#FFFFFF" stroke-width="0.326" stroke-linecap="round" stroke-linejoin="round" d="
			M832.119,1017.625c3.5-1,18.5-1,22,0"/>
		<path id="path67057" fill="none" stroke="#FFFFFF" stroke-width="0.326" stroke-linecap="round" stroke-linejoin="round" d="
			M832.619,1021.125c6-1,15-1,21,0"/>
		<path id="path67059" fill="none" stroke="#FFFFFF" stroke-width="0.326" stroke-linecap="round" stroke-linejoin="round" d="
			M831.119,1023.625c5-1,18.5-1,23.5,0"/>
	</g>
</g>
<g id="g70004" transform="translate(-841.59093,-298.86575)">
	<g id="g67079" transform="matrix(3.677456,0,0,3.6776632,-684.87287,-2670.1206)">
		<path id="path67081" fill="#FFFFFF" stroke="#FFFFFF" stroke-width="1.6315" stroke-linecap="round" d="M622.988,847.111v-5.625"
			/>
		<path id="path67083" fill="#FFFFFF" stroke="#FFFFFF" stroke-width="0.4079" d="M622.988,858.648c0,0,4.775-7.569,3.275-10.569
			c0,0-1.275-2.431-3.275-2.431c-2,0-3.275,2.569-3.275,2.569C618.213,851.217,622.988,858.648,622.988,858.648"/>
		<path id="path67085" fill="#FFFFFF" stroke="#FFFFFF" stroke-width="0.4079" stroke-linecap="round" stroke-linejoin="round" d="
			M612.332,868.542c5.5,3.5,15.156,3.431,20.657-0.069l-0.069-6.313c0,0,7.352-3.607,4.352-9.607c-4-6.5-13.5-3.5-16,4l1.717,1.921
			v-3.5c-3.637-6.127-10.734-8.44-14.42-2.833c-3,6,3.626,10,3.626,10L612.332,868.542z"/>
		<path id="path67087" fill="#FFFFFF" stroke="#FFFFFF" stroke-width="1.6315" stroke-linecap="round" d="M620.488,843.486h5"/>
	</g>
	<g id="g67061" transform="matrix(3.067229,0,0,3.067558,-329.09607,-2142.8556)">
		<path id="path67063" fill="none" stroke="#000000" stroke-width="0.489" stroke-linecap="round" d="M630.966,843.098v-5.625"/>
		<path id="path67065" stroke="#000000" stroke-width="0.489" d="M630.966,856.473c0,0,4.5-7.5,3-10.5c0,0-1-2.5-3-2.5
			c-2,0-3,2.5-3,2.5C626.466,848.973,630.966,856.473,630.966,856.473"/>
		<path id="path67067" stroke="#000000" stroke-width="0.489" stroke-linecap="round" stroke-linejoin="round" d="M619.966,868.473
			c5.5,3.5,15.5,3.5,21,0v-7c0,0,9-4.5,6-10.5c-4-6.5-13.5-3.5-16,4v3.5v-3.5c-3.5-7.5-13-10.5-16-4c-3,6,5,10,5,10V868.473z"/>
		<path id="path67069" fill="none" stroke="#000000" stroke-width="0.489" stroke-linecap="round" d="M628.466,839.473h5"/>
		<path id="path67071" fill="none" stroke="#FFFFFF" stroke-width="0.489" stroke-linecap="round" d="M619.966,860.973
			c5.5-2.5,15.5-2.5,21,0.5"/>
		<path id="path67073" fill="none" stroke="#FFFFFF" stroke-width="0.489" stroke-linecap="round" stroke-linejoin="round" d="
			M619.966,868.473c5.5-2.5,15.5-2.5,21,0"/>
		<path id="path67075" fill="none" stroke="#FFFFFF" stroke-width="0.489" stroke-linecap="round" stroke-linejoin="round" d="
			M619.966,864.973c5.5-2,15.5-2,21,0"/>
		<path id="path67077" fill="none" stroke="#FFFFFF" stroke-width="0.489" stroke-linecap="round" stroke-linejoin="round" d="
			M640.466,860.973c0,0,8.5-4,6.026-9.653c-3.879-5.85-13.026-1.847-15.526,4.653l0.011,2.097l-0.011-2.097
			c-2.5-6.5-12.594-10.503-15.503-4.653c-2.498,5.653,4.848,9,4.848,9"/>
	</g>
</g>
<g id="g80246" transform="translate(88.018147,-613.86413)">
	<path id="path80248" fill="#FFFFFF" stroke="#FFFFFF" stroke-linejoin="round" d="M480.236,1850.391
		c29.278-5.168,72.082-3.021,92.748,2.146c0,0,10.279-44.535,6.385-50.369c-3.896-5.834-21.965,27.034-21.965,27.034l-3.41-42.42
		l-16.166,39.812c0,0-5.767-35.353-11.218-35.132c-5.451,0.223-10.586,36.017-10.586,36.017s-8.621-33.79-15.662-33.454
		c-7.167,0.336-4.419,35.809-4.419,35.809s-16.774-31.037-20.702-25.897C471.314,1809.077,480.236,1850.391,480.236,1850.391z"/>
	<path id="path80250" fill="#FFFFFF" stroke="#FFFFFF" stroke-linejoin="round" d="M479.099,1845.21
		c0,7.295,1.277,11.128,7.329,17.286c1.759,2.693,4.383,3.225,2.24,8.555c-5.668,3.648-5.795,11.141-5.795,11.141
		c-1.755,5.219,2.017,11.109,2.017,11.109c24.562,3.647,56.479,3.66,82.178,0.38c0,0,3.396-4.504,2.146-9.976
		c0,0,0.248-8.375-4.158-12.147c-1.006-6.721,1.085-6.411,3.728-10.115c4.031-6.158,5.337-7.295,5.337-14.59
		C542,1841.381,511.222,1839.74,479.099,1845.21z"/>
	<path id="path80252" fill="#FFFFFF" stroke="#FFFFFF" stroke-width="0.1896" stroke-linecap="round" stroke-linejoin="round" d="
		M587.856,1806.806c0,5.827-4.724,10.553-10.55,10.553c-5.827,0-10.551-4.726-10.551-10.553c0-5.826,4.724-10.552,10.551-10.552
		S587.856,1800.979,587.856,1806.806z"/>
	<path id="path80254" fill="#FFFFFF" stroke="#FFFFFF" stroke-width="0.1896" stroke-linecap="round" stroke-linejoin="round" d="
		M486.552,1806.697c0,5.827-4.724,10.552-10.551,10.552s-10.552-4.725-10.552-10.552s4.725-10.552,10.552-10.552
		S486.552,1800.87,486.552,1806.697z"/>
	<path id="path80256" fill="#FFFFFF" stroke="#000000" stroke-width="1.63" stroke-linecap="round" stroke-linejoin="round" d="
		M482.293,1806.868c0,3.389-2.746,6.135-6.136,6.135c-3.388,0-6.134-2.746-6.134-6.135s2.746-6.135,6.134-6.135
		C479.547,1800.733,482.293,1803.479,482.293,1806.868z"/>
	<path id="path80258" fill="#FFFFFF" stroke="#FFFFFF" stroke-width="0.1896" stroke-linecap="round" stroke-linejoin="round" d="
		M537.185,1792.807c0,5.826-4.724,10.552-10.551,10.552s-10.551-4.726-10.551-10.552c0-5.827,4.724-10.553,10.551-10.553
		S537.185,1786.98,537.185,1792.807z"/>
	<path id="path80260" fill="#FFFFFF" stroke="#000000" stroke-width="1.63" stroke-linecap="round" stroke-linejoin="round" d="
		M532.901,1793.064c0,3.388-2.746,6.135-6.135,6.135c-3.388,0-6.134-2.747-6.134-6.135c0-3.39,2.746-6.137,6.134-6.137
		C530.155,1786.928,532.901,1789.675,532.901,1793.064z"/>
	<path id="path80262" fill="#FFFFFF" stroke="#000000" stroke-width="1.63" stroke-linecap="round" stroke-linejoin="round" d="
		M583.51,1806.868c0,3.389-2.746,6.135-6.135,6.135s-6.135-2.746-6.135-6.135s2.746-6.135,6.135-6.135
		S583.51,1803.479,583.51,1806.868z"/>
	<path id="path80264" fill="#FFFFFF" stroke="#FFFFFF" stroke-width="0.1896" stroke-linecap="round" stroke-linejoin="round" d="
		M511.174,1796.09c0,5.827-4.725,10.552-10.551,10.552s-10.551-4.725-10.551-10.552s4.725-10.552,10.551-10.552
		S511.174,1790.263,511.174,1796.09z"/>
	<path id="path80266" fill="#FFFFFF" stroke="#000000" stroke-width="1.63" stroke-linecap="round" stroke-linejoin="round" d="
		M506.831,1796.131c0,3.39-2.746,6.136-6.136,6.136c-3.388,0-6.135-2.746-6.135-6.136c0-3.389,2.747-6.135,6.135-6.135
		C504.085,1789.996,506.831,1792.743,506.831,1796.131z"/>
	<path id="path80268" fill="#FFFFFF" stroke="#FFFFFF" stroke-width="0.1896" stroke-linecap="round" stroke-linejoin="round" d="
		M563.449,1797.606c0,5.826-4.724,10.551-10.551,10.551c-5.826,0-10.55-4.725-10.55-10.551c0-5.828,4.724-10.553,10.55-10.553
		C558.725,1787.054,563.449,1791.778,563.449,1797.606z"/>
	<path id="path80270" fill="#FFFFFF" stroke="#000000" stroke-width="1.63" stroke-linecap="round" stroke-linejoin="round" d="
		M558.972,1797.664c0,3.389-2.746,6.136-6.135,6.136s-6.134-2.747-6.134-6.136c0-3.388,2.745-6.135,6.134-6.135
		C556.226,1791.53,558.972,1794.277,558.972,1797.664z"/>
	<path id="path80272" fill="#FFFFFF" stroke="#000000" stroke-width="5" stroke-linejoin="round" d="M485.359,1849.813
		c26.071-4.602,64.412-4.602,82.815,0l6.134-36.812l-21.471,33.743V1803.8l-16.869,41.412l-9.202-46.014l-9.201,46.014
		l-16.87-42.945v44.479l-21.471-33.743L485.359,1849.813z"/>
	<path id="path80274" fill="#FFFFFF" stroke="#000000" stroke-width="5" stroke-linejoin="round" d="M485.359,1849.813
		c0,6.136,4.602,6.136,7.668,12.271c3.067,4.603,3.067,3.067,1.533,10.736c-4.601,3.066-4.601,7.669-4.601,7.669
		c-4.602,4.602,1.533,7.669,1.533,7.669c19.938,3.066,50.609,3.066,70.547,0c0,0,4.601-3.067,0-7.669c0,0,1.532-4.603-3.067-7.669
		c-1.533-7.669-1.533-6.136,1.534-10.736c3.065-6.135,7.668-6.135,7.668-12.271C542.103,1845.212,511.43,1845.212,485.359,1849.813z
		"/>
	<path id="path80276" fill="none" stroke="#000000" stroke-width="5" stroke-linecap="round" stroke-linejoin="round" d="
		M493.027,1862.083c10.735-3.066,56.744-3.066,67.479,0"/>
	<path id="path80278" fill="none" stroke="#000000" stroke-width="5" stroke-linecap="round" stroke-linejoin="round" d="
		M494.56,1872.82c18.404-3.067,46.009-3.067,64.412,0"/>
	<path id="path80280" fill="none" stroke="#000000" stroke-width="5" stroke-linecap="round" stroke-linejoin="round" d="
		M489.961,1880.489c15.336-3.067,56.744-3.067,72.08,0"/>
</g>
<g id="g82263" transform="translate(-2.0787213,-601.78479)">
	<path id="path80321" fill="none" stroke="#FFFFFF" stroke-width="8" stroke-linecap="round" d="M767.461,1790.062v-16.386"/>
	<path id="path80323" fill="none" stroke="#FFFFFF" stroke-width="8" stroke-linecap="round" d="M759.666,1779.68h15.337"/>
	<path id="path80300" fill="none" stroke="#000000" stroke-width="5" stroke-linecap="round" d="M767.614,1790.95v-17.255"/>
	<path id="path80302" fill="#FFFFFF" stroke="#000000" stroke-width="5" d="M767.614,1831.98c0,0,13.803-23.007,9.201-32.21
		c0,0-3.066-7.669-9.201-7.669s-9.202,7.669-9.202,7.669C753.812,1808.973,767.614,1831.98,767.614,1831.98"/>
	<path id="path80304" fill="#FFFFFF" stroke="#000000" stroke-width="5" stroke-linecap="round" stroke-linejoin="round" d="
		M733.875,1868.79c16.869,10.736,47.542,10.736,64.411,0v-21.473c0,0,27.605-13.805,18.403-32.21
		c-12.27-19.939-41.407-10.736-49.075,12.271v10.735v-10.735c-10.735-23.008-39.874-32.211-49.076-12.271
		c-9.2,18.405,15.337,30.676,15.337,30.676V1868.79z"/>
	<path id="path80306" fill="none" stroke="#000000" stroke-width="5" stroke-linecap="round" d="M759.946,1779.831h15.336"/>
	<path id="path80308" fill="none" stroke="#000000" stroke-width="5" stroke-linecap="round" d="M733.875,1845.783
		c16.869-7.669,47.542-7.669,64.411,1.534"/>
	<path id="path80310" fill="none" stroke="#000000" stroke-width="5" stroke-linecap="round" stroke-linejoin="round" d="
		M733.875,1868.79c16.869-7.669,47.542-7.669,64.411,0"/>
	<path id="path80312" fill="none" stroke="#000000" stroke-width="5" stroke-linecap="round" stroke-linejoin="round" d="
		M733.875,1858.054c16.869-6.137,47.542-6.137,64.411,0"/>
</g>
</svg>
