<?xml version="1.0" encoding="utf-8"?>
<!-- Generator: Adobe Illustrator 16.0.4, SVG Export Plug-In . SVG Version: 6.00 Build 0)  -->
<!DOCTYPE svg PUBLIC "-//W3C//DTD SVG 1.1//EN" "http://www.w3.org/Graphics/SVG/1.1/DTD/svg11.dtd">
<svg version="1.1" id="Layer_1" xmlns="http://www.w3.org/2000/svg" xmlns:xlink="http://www.w3.org/1999/xlink" x="0px" y="0px"
	 width="41.667px" height="27.775px" viewBox="0 0 41.667 27.775" enable-background="new 0 0 41.667 27.775" xml:space="preserve">
<path fill="#0088CC" d="M41.253,9.681c0.847-1.493,0.357-3.441-1.135-4.287c-1.527-0.877-3.445-0.355-4.291,1.138
	c-0.779,1.33-0.453,3.055,0.685,3.995c-2.601,2.209-10.56,8.968-10.623,8.968L21.178,6.271c1.657-0.098,2.925-1.461,2.925-3.118
	C24.103,1.43,22.707,0,20.918,0h-0.162c-1.753,0-3.183,1.43-3.183,3.151c0,1.657,1.266,3.021,2.923,3.118l-4.71,13.224
	c-0.033,0-7.991-6.759-10.655-8.968c1.202-0.94,1.528-2.665,0.746-3.996C5,5.037,3.084,4.517,1.557,5.394
	C0.095,6.238-0.457,8.188,0.42,9.681c0.845,1.43,2.632,1.983,4.158,1.235l2.923,16.859h26.704l2.924-16.859
	C38.625,11.664,40.41,11.11,41.253,9.681z"/>
</svg>
